<?xml version="1.0" encoding="utf-8"?>
<!-- Generator: Adobe Illustrator 16.0.0, SVG Export Plug-In . SVG Version: 6.00 Build 0)  -->
<!DOCTYPE svg PUBLIC "-//W3C//DTD SVG 1.1//EN" "http://www.w3.org/Graphics/SVG/1.1/DTD/svg11.dtd">
<svg version="1.1" xmlns="http://www.w3.org/2000/svg" xmlns:xlink="http://www.w3.org/1999/xlink" x="0px" y="0px" width="589.5px"
	 height="77px" viewBox="0 0 589.5 77" enable-background="new 0 0 589.5 77" xml:space="preserve">
<g id="Layer_1">
</g>
<g id="Layer_2">
	<g>
		<ellipse fill="#3F030B" stroke="#8F7E81" stroke-width="1.9843" cx="294.89" cy="38.689" rx="292.39" ry="36"/>
		<g>
			<path fill="#C6A774" stroke="#3F030B" stroke-width="0.1417" d="M93.945,36.003c0.139,0,0.278-0.09,0.278-0.315V34.74
				c0-6.854,0-8.117-0.093-9.561c-0.092-1.533-0.462-2.254-1.988-2.571c-0.37-0.09-1.156-0.134-1.804-0.134
				c-0.508,0-0.786-0.091-0.786-0.406c0-0.316,0.324-0.407,0.971-0.407c2.498,0,5.411,0.136,6.659,0.136
				c1.11,0,4.023-0.136,5.827-0.136c0.647,0,0.971,0.091,0.971,0.407c0,0.315-0.277,0.406-0.832,0.406
				c-0.371,0-0.787,0.044-1.341,0.134c-1.249,0.227-1.618,0.992-1.711,2.571c-0.092,1.443-0.092,2.706-0.092,9.561v7.937
				c0,4.149,0,7.712,0.231,9.651c0.139,1.262,0.416,2.254,1.803,2.436c0.648,0.089,1.665,0.18,2.358,0.18
				c0.509,0,0.74,0.135,0.74,0.36c0,0.316-0.37,0.451-0.925,0.451c-3.006,0-5.919-0.135-7.214-0.135
				c-1.063,0-3.977,0.135-5.78,0.135c-0.647,0-0.972-0.135-0.972-0.451c0-0.226,0.186-0.36,0.74-0.36
				c0.693,0,1.249-0.091,1.665-0.18c0.924-0.182,1.156-1.174,1.341-2.48c0.231-1.895,0.231-5.457,0.231-9.606v-3.969
				c0-0.18-0.139-0.271-0.278-0.271H76.28c-0.139,0-0.277,0.045-0.277,0.271v3.969c0,4.149,0,7.712,0.231,9.651
				c0.139,1.262,0.416,2.254,1.804,2.436c0.647,0.089,1.665,0.18,2.358,0.18c0.509,0,0.74,0.135,0.74,0.36
				c0,0.316-0.37,0.451-0.924,0.451c-3.006,0-5.919-0.135-7.214-0.135c-1.063,0-3.978,0.135-5.827,0.135
				c-0.601,0-0.925-0.135-0.925-0.451c0-0.226,0.185-0.36,0.74-0.36c0.693,0,1.249-0.091,1.664-0.18
				c0.925-0.182,1.157-1.174,1.341-2.48c0.231-1.895,0.231-5.457,0.231-9.606V34.74c0-6.854,0-8.117-0.092-9.561
				c-0.092-1.533-0.462-2.254-1.989-2.571c-0.37-0.09-1.155-0.134-1.803-0.134c-0.509,0-0.787-0.091-0.787-0.406
				c0-0.316,0.324-0.407,0.971-0.407c2.498,0,5.412,0.136,6.66,0.136c1.11,0,4.023-0.136,5.827-0.136
				c0.648,0,0.971,0.091,0.971,0.407c0,0.315-0.277,0.406-0.832,0.406c-0.37,0-0.787,0.044-1.341,0.134
				c-1.249,0.227-1.619,0.992-1.711,2.571c-0.092,1.443-0.092,2.706-0.092,9.561v0.947c0,0.226,0.138,0.315,0.277,0.315H93.945z"/>
			<path fill="#C6A774" stroke="#3F030B" stroke-width="0.1417" d="M115.401,51.471c-4.532-3.878-5.734-8.93-5.734-13.303
				c0-3.066,0.971-8.389,5.411-12.356c3.33-2.977,7.723-4.78,14.613-4.78c2.868,0,4.579,0.18,6.706,0.451
				c1.757,0.225,3.237,0.631,4.624,0.766c0.509,0.045,0.694,0.271,0.694,0.541c0,0.36-0.139,0.902-0.231,2.48
				c-0.093,1.488-0.046,3.969-0.138,4.871c-0.047,0.676-0.139,1.037-0.556,1.037c-0.37,0-0.462-0.361-0.462-0.992
				c-0.046-1.398-0.647-2.977-1.804-4.149c-1.526-1.578-5.133-2.796-9.388-2.796c-4.023,0-6.659,0.992-8.693,2.796
				c-3.376,3.022-4.254,7.306-4.254,11.681c0,10.732,8.37,16.055,14.566,16.055c4.116,0,6.613-0.451,8.463-2.526
				c0.786-0.856,1.387-2.164,1.572-2.976c0.139-0.722,0.231-0.903,0.601-0.903c0.324,0,0.417,0.316,0.417,0.678
				c0,0.54-0.555,4.464-1.018,5.998c-0.231,0.766-0.417,0.991-1.202,1.308c-1.85,0.721-5.365,1.037-8.324,1.037
				C124.927,56.387,119.609,55.033,115.401,51.471z"/>
			<path fill="#FFFFFF" stroke="#3F030B" stroke-width="0.1417" d="M155.216,34.74c0-7.035,0-8.297-0.093-9.74
				c-0.092-1.534-0.462-2.256-1.988-2.57c-0.37-0.092-1.156-0.137-1.572-0.137c-0.186,0-0.37-0.09-0.37-0.27
				c0-0.271,0.231-0.362,0.74-0.362c2.081,0,4.995,0.136,5.226,0.136c0.508,0,4.023-0.136,5.457-0.136
				c2.914,0,6.012,0.272,8.463,1.985c1.156,0.812,3.191,3.021,3.191,6.133c0,3.338-1.434,6.675-5.596,10.417
				c3.792,4.735,6.937,8.75,9.619,11.546c2.498,2.569,4.486,3.065,5.642,3.246c0.878,0.136,1.526,0.136,1.804,0.136
				c0.231,0,0.416,0.136,0.416,0.271c0,0.271-0.277,0.36-1.109,0.36h-3.284c-2.589,0-3.746-0.226-4.948-0.856
				c-1.989-1.038-3.607-3.248-6.243-6.629c-1.942-2.48-4.116-5.503-5.041-6.676c-0.185-0.18-0.324-0.271-0.601-0.271l-5.688-0.089
				c-0.231,0-0.324,0.135-0.324,0.359v1.083c0,4.33,0,7.893,0.231,9.786c0.139,1.309,0.417,2.301,1.804,2.48
				c0.647,0.09,1.665,0.181,2.081,0.181c0.277,0,0.37,0.136,0.37,0.271c0,0.226-0.231,0.36-0.74,0.36
				c-2.543,0-5.457-0.135-5.688-0.135c-0.046,0-2.96,0.135-4.347,0.135c-0.509,0-0.74-0.09-0.74-0.36
				c0-0.135,0.092-0.271,0.37-0.271c0.417,0,0.971-0.091,1.388-0.181c0.925-0.18,1.156-1.172,1.341-2.48
				c0.231-1.894,0.231-5.456,0.231-9.786V34.74z M158.915,38.663c0,0.227,0.093,0.406,0.324,0.541
				c0.693,0.406,2.821,0.722,4.855,0.722c1.11,0,2.405-0.135,3.468-0.856c1.619-1.083,2.821-3.517,2.821-6.945
				c0-5.638-3.052-9.02-8-9.02c-1.388,0-2.636,0.136-3.099,0.271c-0.231,0.09-0.37,0.271-0.37,0.542V38.663z"/>
			<path fill="#FFFFFF" stroke="#3F030B" stroke-width="0.1417" d="M189.663,34.74c0-7.035,0-8.297-0.093-9.74
				c-0.092-1.534-0.462-2.256-1.989-2.57c-0.37-0.092-1.156-0.137-1.572-0.137c-0.185,0-0.37-0.09-0.37-0.27
				c0-0.271,0.231-0.362,0.74-0.362c1.063,0,2.312,0,3.33,0.046l1.896,0.09c0.325,0,9.527,0,10.591-0.045
				c0.878-0.045,1.619-0.135,1.988-0.225c0.231-0.045,0.416-0.227,0.647-0.227c0.139,0,0.186,0.182,0.186,0.406
				c0,0.316-0.231,0.857-0.37,2.12c-0.046,0.45-0.139,2.435-0.231,2.977c-0.046,0.225-0.139,0.496-0.324,0.496
				c-0.277,0-0.37-0.227-0.37-0.587c0-0.316-0.045-1.082-0.277-1.624c-0.323-0.72-0.786-1.262-3.283-1.532
				c-0.786-0.091-5.827-0.135-6.335-0.135c-0.185,0-0.277,0.135-0.277,0.45v12.446c0,0.315,0.046,0.451,0.277,0.451
				c0.601,0,6.29,0,7.353-0.09c1.11-0.091,1.757-0.181,2.173-0.631c0.324-0.361,0.509-0.586,0.694-0.586
				c0.138,0,0.23,0.09,0.23,0.359c0,0.271-0.23,1.038-0.37,2.525c-0.092,0.901-0.185,2.57-0.185,2.887c0,0.359,0,0.856-0.323,0.856
				c-0.231,0-0.324-0.181-0.324-0.406c0-0.45,0-0.901-0.185-1.488c-0.186-0.631-0.601-1.398-2.405-1.578
				c-1.249-0.136-5.827-0.225-6.613-0.225c-0.231,0-0.324,0.135-0.324,0.314v3.969c0,1.533-0.046,6.765,0,7.712
				c0.139,3.112,0.833,3.698,5.364,3.698c1.203,0,3.237,0,4.439-0.497c1.203-0.496,1.758-1.398,2.081-3.246
				c0.093-0.497,0.185-0.676,0.416-0.676c0.278,0,0.278,0.359,0.278,0.676c0,0.36-0.37,3.428-0.601,4.374
				c-0.324,1.173-0.694,1.173-2.498,1.173c-3.468,0-6.011-0.091-7.815-0.136c-1.803-0.09-2.913-0.135-3.607-0.135
				c-0.092,0-0.878,0-1.849,0.045c-0.925,0-1.989,0.09-2.683,0.09c-0.509,0-0.74-0.09-0.74-0.36c0-0.135,0.092-0.271,0.37-0.271
				c0.417,0,0.972-0.091,1.388-0.181c0.925-0.18,1.157-1.172,1.341-2.48c0.231-1.894,0.231-5.456,0.231-9.786V34.74z"/>
			<path fill="#FFFFFF" stroke="#3F030B" stroke-width="0.1417" d="M213.061,55.169c-0.647-0.316-0.693-0.496-0.693-1.714
				c0-2.255,0.185-4.059,0.231-4.78c0.046-0.496,0.139-0.722,0.37-0.722c0.277,0,0.323,0.135,0.323,0.496
				c0,0.406,0,1.038,0.139,1.669c0.694,3.337,3.746,4.6,6.844,4.6c4.44,0,6.613-3.111,6.613-5.997c0-3.112-1.341-4.917-5.318-8.119
				l-2.081-1.668c-4.901-3.923-6.012-6.719-6.012-9.785c0-4.826,3.7-8.117,9.572-8.117c1.804,0,3.146,0.18,4.301,0.451
				c0.879,0.179,1.249,0.225,1.619,0.225c0.37,0,0.462,0.09,0.462,0.316c0,0.225-0.185,1.713-0.185,4.78
				c0,0.721-0.092,1.036-0.324,1.036c-0.277,0-0.324-0.225-0.37-0.585c-0.046-0.542-0.324-1.761-0.601-2.255
				c-0.277-0.496-1.526-2.392-5.781-2.392c-3.19,0-5.688,1.938-5.688,5.231c0,2.57,1.202,4.195,5.642,7.578l1.294,0.991
				c5.457,4.192,6.752,6.989,6.752,10.598c0,1.849-0.74,5.276-3.931,7.486c-1.988,1.353-4.485,1.894-6.982,1.894
				C217.084,56.387,214.957,56.07,213.061,55.169z"/>
			<path fill="#FFFFFF" stroke="#3F030B" stroke-width="0.1417" d="M251.303,42.677c0,4.33,0,7.893,0.231,9.786
				c0.139,1.309,0.416,2.301,1.803,2.48c0.647,0.09,1.665,0.181,2.081,0.181c0.278,0,0.37,0.136,0.37,0.271
				c0,0.226-0.231,0.36-0.74,0.36c-2.543,0-5.457-0.135-5.688-0.135c-0.231,0-3.145,0.135-4.532,0.135c-0.509,0-0.74-0.09-0.74-0.36
				c0-0.135,0.092-0.271,0.37-0.271c0.416,0,0.971-0.091,1.387-0.181c0.924-0.18,1.156-1.172,1.341-2.48
				c0.231-1.894,0.231-5.456,0.231-9.786V23.601l-6.844,0.091c-2.867,0.045-3.977,0.359-4.717,1.443
				c-0.509,0.766-0.648,1.082-0.787,1.396c-0.139,0.361-0.277,0.451-0.462,0.451c-0.139,0-0.231-0.135-0.231-0.404
				c0-0.451,0.925-4.33,1.017-4.69c0.093-0.271,0.278-0.856,0.463-0.856c0.324,0,0.786,0.451,2.035,0.541
				c1.341,0.135,3.098,0.225,3.653,0.225h17.342c1.479,0,2.543-0.09,3.283-0.225c0.694-0.09,1.11-0.227,1.294-0.227
				c0.231,0,0.231,0.271,0.231,0.542c0,1.353-0.139,4.464-0.139,4.96c0,0.407-0.139,0.586-0.323,0.586
				c-0.232,0-0.324-0.134-0.37-0.766l-0.046-0.496c-0.139-1.353-1.249-2.391-5.688-2.48l-5.827-0.091V42.677z"/>
			<path fill="#FFFFFF" stroke="#3F030B" stroke-width="0.1417" d="M283.626,21.031c10.405,0,18.174,6.402,18.174,16.912
				c0,10.101-7.307,18.443-18.452,18.443c-12.671,0-17.943-9.605-17.943-17.724C265.406,31.357,270.863,21.031,283.626,21.031z
				 M284.597,54.673c4.162,0,12.764-2.345,12.764-15.469c0-10.823-6.752-16.64-14.059-16.64c-7.723,0-13.504,4.96-13.504,14.838
				C269.799,47.908,276.274,54.673,284.597,54.673z"/>
			<path fill="#FFFFFF" stroke="#3F030B" stroke-width="0.1417" d="M369.307,55.124c-0.463,0-1.156-0.046-1.85-0.271
				c-0.972-0.271-2.312-0.992-3.977-5.006c-2.821-6.854-10.082-25.478-10.776-27.193c-0.554-1.397-0.74-1.622-1.018-1.622
				c-0.276,0-0.462,0.27-1.016,1.758l-10.498,28.005c-0.68,1.84-1.432,3.305-2.836,3.934c-1.153-0.352-2.693-1.119-4.509-2.985
				c-2.683-2.796-5.826-6.811-9.619-11.546c4.162-3.742,5.596-7.079,5.596-10.417c0-3.111-2.034-5.321-3.191-6.133
				c-2.45-1.713-5.548-1.985-8.462-1.985c-1.434,0-4.947,0.136-5.456,0.136c-0.231,0-3.145-0.136-5.226-0.136
				c-0.51,0-0.74,0.091-0.74,0.362c0,0.18,0.185,0.27,0.37,0.27c0.416,0,1.202,0.045,1.571,0.137
				c1.526,0.314,1.897,1.036,1.989,2.57c0.092,1.443,0.092,2.705,0.092,9.74v7.937c0,4.33,0,7.893-0.23,9.786
				c-0.185,1.309-0.417,2.301-1.341,2.48c-0.417,0.09-0.972,0.181-1.388,0.181c-0.277,0-0.37,0.136-0.37,0.271
				c0,0.271,0.23,0.36,0.74,0.36c1.388,0,4.301-0.135,4.347-0.135c0.231,0,3.146,0.135,5.688,0.135c0.509,0,0.74-0.135,0.74-0.36
				c0-0.135-0.093-0.271-0.37-0.271c-0.416,0-1.434-0.091-2.081-0.181c-1.387-0.18-1.664-1.172-1.803-2.48
				c-0.231-1.894-0.231-5.456-0.231-9.786v-1.083c0-0.225,0.093-0.359,0.324-0.359l5.688,0.089c0.277,0,0.417,0.091,0.602,0.271
				c0.925,1.173,3.098,4.195,5.04,6.676c2.636,3.381,4.255,5.591,6.243,6.629c0.972,0.51,1.927,0.751,3.62,0.827
				c0.122,0.019,0.264,0.029,0.439,0.029c0.186,0,0.374-0.002,0.562-0.004c0.111,0.001,0.21,0.004,0.326,0.004h3.284
				c0.517,0,0.802-0.041,0.957-0.133c0.029,0,0.075-0.002,0.097-0.002c0.509,0,2.498,0.135,3.607,0.135
				c0.416,0,0.693-0.09,0.693-0.36c0-0.181-0.139-0.271-0.462-0.271h-0.462c-0.787,0-1.758-0.406-1.758-1.308
				c0-0.812,0.23-1.896,0.646-3.022l2.775-7.982c0.092-0.225,0.231-0.359,0.463-0.359h9.942c0.231,0,0.323,0.089,0.415,0.271
				l4.302,11.094c0.276,0.721,0,1.127-0.277,1.217c-0.186,0.045-0.324,0.136-0.324,0.316c0,0.271,0.509,0.271,1.387,0.315
				c3.191,0.09,6.567,0.09,7.261,0.09c0.51,0,0.926-0.09,0.926-0.36C369.77,55.169,369.584,55.124,369.307,55.124z M322.1,39.069
				c-1.063,0.722-2.358,0.856-3.468,0.856c-2.035,0-4.162-0.315-4.855-0.722c-0.231-0.135-0.324-0.314-0.324-0.541V23.918
				c0-0.271,0.139-0.452,0.37-0.542c0.462-0.136,1.711-0.271,3.099-0.271c4.947,0,7.999,3.382,7.999,9.02
				C324.92,35.553,323.719,37.986,322.1,39.069z M355.479,40.829h-8.832c-0.139,0-0.231-0.092-0.139-0.316l4.068-12.177
				c0.232-0.676,0.463-0.676,0.693,0l4.394,12.177C355.711,40.693,355.711,40.829,355.479,40.829z"/>
			<path fill="#FFFFFF" stroke="#3F030B" stroke-width="0.1417" d="M382.417,42.677c0,4.33,0,7.893,0.231,9.786
				c0.139,1.309,0.416,2.301,1.803,2.48c0.647,0.09,1.665,0.181,2.081,0.181c0.277,0,0.371,0.136,0.371,0.271
				c0,0.226-0.232,0.36-0.741,0.36c-2.543,0-5.456-0.135-5.688-0.135s-3.146,0.135-4.532,0.135c-0.508,0-0.74-0.09-0.74-0.36
				c0-0.135,0.094-0.271,0.37-0.271c0.417,0,0.973-0.091,1.388-0.181c0.925-0.18,1.156-1.172,1.341-2.48
				c0.231-1.894,0.231-5.456,0.231-9.786V23.601l-6.845,0.091c-2.866,0.045-3.977,0.359-4.717,1.443
				c-0.509,0.766-0.646,1.082-0.785,1.396c-0.14,0.361-0.277,0.451-0.464,0.451c-0.138,0-0.23-0.135-0.23-0.404
				c0-0.451,0.925-4.33,1.018-4.69c0.093-0.271,0.277-0.856,0.462-0.856c0.324,0,0.787,0.451,2.035,0.541
				c1.342,0.135,3.099,0.225,3.653,0.225h17.342c1.479,0,2.544-0.09,3.284-0.225c0.693-0.09,1.109-0.227,1.293-0.227
				c0.232,0,0.232,0.271,0.232,0.542c0,1.353-0.139,4.464-0.139,4.96c0,0.407-0.139,0.586-0.324,0.586
				c-0.23,0-0.323-0.134-0.369-0.766l-0.047-0.496c-0.138-1.353-1.248-2.391-5.688-2.48l-5.826-0.091V42.677z"/>
			<path fill="#FFFFFF" stroke="#3F030B" stroke-width="0.1417" d="M406.555,42.677c0,4.33,0,7.893,0.231,9.786
				c0.138,1.309,0.415,2.301,1.804,2.48c0.647,0.09,1.665,0.181,2.08,0.181c0.278,0,0.37,0.136,0.37,0.271
				c0,0.226-0.23,0.36-0.739,0.36c-2.544,0-5.457-0.135-5.688-0.135c-0.232,0-3.146,0.135-4.532,0.135c-0.51,0-0.74-0.09-0.74-0.36
				c0-0.135,0.092-0.271,0.37-0.271c0.415,0,0.971-0.091,1.387-0.181c0.925-0.18,1.155-1.172,1.342-2.48
				c0.23-1.894,0.23-5.456,0.23-9.786V34.74c0-7.035,0-8.297-0.092-9.74c-0.093-1.534-0.556-2.301-1.573-2.525
				c-0.509-0.137-1.109-0.182-1.434-0.182c-0.184,0-0.369-0.09-0.369-0.27c0-0.271,0.23-0.362,0.74-0.362
				c1.525,0,4.438,0.136,4.671,0.136c0.23,0,3.144-0.136,4.531-0.136c0.508,0,0.739,0.091,0.739,0.362c0,0.18-0.185,0.27-0.369,0.27
				c-0.324,0-0.603,0.045-1.156,0.137c-1.248,0.224-1.618,0.992-1.711,2.57c-0.093,1.443-0.093,2.705-0.093,9.74V42.677z"/>
			<path fill="#FFFFFF" stroke="#3F030B" stroke-width="0.1417" d="M434.3,21.031c10.405,0,18.174,6.402,18.174,16.912
				c0,10.101-7.306,18.443-18.452,18.443c-12.67,0-17.942-9.605-17.942-17.724C416.079,31.357,421.537,21.031,434.3,21.031z
				 M435.271,54.673c4.161,0,12.762-2.345,12.762-15.469c0-10.823-6.75-16.64-14.058-16.64c-7.723,0-13.503,4.96-13.503,14.838
				C420.473,47.908,426.946,54.673,435.271,54.673z"/>
			<path fill="#FFFFFF" stroke="#3F030B" stroke-width="0.1417" d="M461.675,49.622c0.091,3.698,0.554,4.871,1.802,5.23
				c0.88,0.226,1.897,0.271,2.313,0.271c0.23,0,0.369,0.09,0.369,0.271c0,0.271-0.276,0.36-0.832,0.36
				c-2.636,0-4.485-0.135-4.901-0.135c-0.417,0-2.358,0.135-4.439,0.135c-0.462,0-0.74-0.044-0.74-0.36
				c0-0.181,0.14-0.271,0.37-0.271c0.37,0,1.201-0.046,1.895-0.271c1.157-0.315,1.39-1.623,1.39-5.727l0.045-25.841
				c0-1.758,0.139-2.254,0.51-2.254c0.369,0,1.156,0.992,1.617,1.443c0.693,0.766,7.585,8.026,14.706,15.469
				c4.578,4.779,9.619,10.28,11.099,11.769l-0.509-22.908c-0.046-2.932-0.37-3.924-1.804-4.285
				c-0.832-0.181-1.896-0.226-2.266-0.226c-0.323,0-0.37-0.135-0.37-0.314c0-0.271,0.37-0.317,0.926-0.317
				c2.08,0,4.3,0.136,4.81,0.136c0.508,0,2.034-0.136,3.93-0.136c0.509,0,0.833,0.046,0.833,0.317c0,0.18-0.185,0.314-0.508,0.314
				c-0.232,0-0.557,0-1.111,0.137c-1.525,0.314-1.711,1.307-1.711,4.014l-0.092,26.425c0,2.978-0.093,3.202-0.417,3.202
				c-0.369,0-0.924-0.495-3.375-2.886c-0.51-0.451-7.169-7.08-12.07-12.221c-5.364-5.638-10.59-11.319-12.07-12.943L461.675,49.622z
				"/>
			<path fill="#FFFFFF" stroke="#3F030B" stroke-width="0.1417" d="M499.501,55.169c-0.647-0.316-0.694-0.496-0.694-1.714
				c0-2.255,0.186-4.059,0.231-4.78c0.046-0.496,0.139-0.722,0.37-0.722c0.277,0,0.324,0.135,0.324,0.496
				c0,0.406,0,1.038,0.139,1.669c0.693,3.337,3.745,4.6,6.843,4.6c4.44,0,6.614-3.111,6.614-5.997c0-3.112-1.342-4.917-5.319-8.119
				l-2.08-1.668c-4.903-3.923-6.012-6.719-6.012-9.785c0-4.826,3.699-8.117,9.572-8.117c1.804,0,3.144,0.18,4.301,0.451
				c0.879,0.179,1.248,0.225,1.618,0.225s0.463,0.09,0.463,0.316c0,0.225-0.185,1.713-0.185,4.78c0,0.721-0.093,1.036-0.324,1.036
				c-0.278,0-0.324-0.225-0.369-0.585c-0.047-0.542-0.324-1.761-0.603-2.255c-0.277-0.496-1.525-2.392-5.779-2.392
				c-3.191,0-5.688,1.938-5.688,5.231c0,2.57,1.203,4.195,5.642,7.578l1.295,0.991c5.457,4.192,6.751,6.989,6.751,10.598
				c0,1.849-0.739,5.276-3.931,7.486c-1.988,1.353-4.485,1.894-6.983,1.894C503.523,56.387,501.396,56.07,499.501,55.169z"/>
		</g>
		<path fill="#FFFFFF" stroke="#3F030B" stroke-width="0.2835" d="M59.625,40.417c0,0-1.953-3.621-6.999-3.793
			c-0.522-1.114-1.779-3.03-4.304-3.207c-3.578-0.25-7.501,0.75-9.809,1.875c-2.308,1.125-9.924,5.375-12.232,3.75
			s-1.726-2.234-1.385-2.375c0.606-0.25,1.154-1.781-0.144-2.656c-0.532-0.358-1.134-0.438-1.626-0.278
			c-0.401,0.13-0.729,0.386-0.884,1.06c-0.346,1.5,0.346,2.25,0.346,2.25s1.244,2.497,4.333,3.442
			c0.434,0.996,1.775,3.36,4.829,3.558c3.875,0.25,8.125-0.75,10.625-1.875s10.75-5.375,13.25-3.75s1.87,2.234,1.5,2.375
			c-0.656,0.25-1.25,1.781,0.156,2.656c0.576,0.358,1.229,0.438,1.761,0.278c0.434-0.13,0.789-0.386,0.958-1.06
			C60.375,41.167,59.625,40.417,59.625,40.417z M29.875,41.917c-0.783-0.397-1.271-0.802-1.586-1.146
			c1.718,0.214,3.871-0.047,6.531-1.229c9.001-4,12.976-5.242,15.232-4c0.693,0.382,1.139,0.771,1.431,1.104
			c-1.47,0.097-3.163,0.473-5.109,1.271C36.625,41.917,32.319,43.159,29.875,41.917z"/>
		<path fill="#FFFFFF" stroke="#3F030B" stroke-width="0.2835" d="M528.334,42.667c0.168,0.674,0.523,0.93,0.957,1.06
			c0.533,0.16,1.186,0.08,1.762-0.278c1.406-0.875,0.812-2.406,0.156-2.656c-0.369-0.141-1-0.75,1.5-2.375s10.75,2.625,13.25,3.75
			s6.75,2.125,10.625,1.875c3.053-0.197,4.395-2.562,4.828-3.558c3.09-0.945,4.334-3.442,4.334-3.442s0.692-0.75,0.346-2.25
			c-0.155-0.674-0.482-0.93-0.884-1.06c-0.491-0.16-1.095-0.08-1.626,0.278c-1.298,0.875-0.75,2.406-0.145,2.656
			c0.342,0.141,0.924,0.75-1.385,2.375c-2.308,1.625-9.924-2.625-12.231-3.75s-6.231-2.125-9.81-1.875
			c-2.524,0.177-3.781,2.093-4.304,3.207c-5.046,0.172-6.999,3.793-6.999,3.793S527.959,41.167,528.334,42.667z M541.959,37.917
			c-1.945-0.798-3.639-1.174-5.109-1.271c0.293-0.334,0.738-0.723,1.432-1.104c2.256-1.242,6.231,0,15.232,4
			c2.66,1.183,4.813,1.443,6.531,1.229c-0.315,0.344-0.803,0.748-1.586,1.146C556.016,43.159,551.709,41.917,541.959,37.917z"/>
	</g>
</g>
</svg>
