<?xml version="1.0" encoding="utf-8"?>
<!-- Generator: Adobe Illustrator 16.0.0, SVG Export Plug-In . SVG Version: 6.00 Build 0)  -->
<!DOCTYPE svg PUBLIC "-//W3C//DTD SVG 1.1//EN" "http://www.w3.org/Graphics/SVG/1.1/DTD/svg11.dtd">
<svg version="1.1" id="Layer_1" xmlns="http://www.w3.org/2000/svg" xmlns:xlink="http://www.w3.org/1999/xlink" x="0px" y="0px"
	 width="354px" height="50.75px" viewBox="0 0 354 50.75" enable-background="new 0 0 354 50.75" xml:space="preserve">
<g id="Layer_1_1_">
</g>
<g id="Layer_2">
	<g>
		<ellipse fill="#3F030B" stroke="#8F7E81" stroke-width="1.9843" cx="175.036" cy="26.045" rx="173.605" ry="21.375"/>
		<g>
			<path fill="#C6A774" stroke="#3F030B" stroke-width="0.1417" d="M55.726,24.449c0.083,0,0.165-0.053,0.165-0.187V23.7
				c0-4.07,0-4.82-0.055-5.677c-0.055-0.91-0.275-1.339-1.181-1.527c-0.22-0.053-0.687-0.079-1.071-0.079
				c-0.302,0-0.466-0.054-0.466-0.241c0-0.187,0.192-0.242,0.576-0.242c1.483,0,3.213,0.081,3.954,0.081
				c0.659,0,2.389-0.081,3.46-0.081c0.384,0,0.576,0.055,0.576,0.242c0,0.187-0.165,0.241-0.494,0.241
				c-0.22,0-0.467,0.026-0.796,0.079c-0.741,0.135-0.96,0.59-1.016,1.527c-0.055,0.856-0.055,1.606-0.055,5.677v4.712
				c0,2.464,0,4.579,0.138,5.73c0.082,0.748,0.247,1.338,1.07,1.445c0.385,0.053,0.989,0.105,1.4,0.105
				c0.302,0,0.439,0.08,0.439,0.215c0,0.188-0.22,0.268-0.549,0.268c-1.785,0-3.515-0.078-4.284-0.078
				c-0.631,0-2.361,0.078-3.432,0.078c-0.384,0-0.577-0.078-0.577-0.268c0-0.135,0.11-0.215,0.439-0.215
				c0.412,0,0.741-0.053,0.988-0.105c0.549-0.107,0.687-0.697,0.796-1.473c0.137-1.125,0.137-3.24,0.137-5.704v-2.356
				c0-0.105-0.082-0.16-0.165-0.16H45.236c-0.082,0-0.164,0.026-0.164,0.16v2.356c0,2.464,0,4.579,0.137,5.729
				c0.083,0.75,0.247,1.338,1.071,1.446c0.384,0.054,0.988,0.106,1.4,0.106c0.302,0,0.439,0.08,0.439,0.214
				c0,0.188-0.22,0.268-0.549,0.268c-1.785,0-3.515-0.079-4.284-0.079c-0.631,0-2.361,0.079-3.459,0.079
				c-0.357,0-0.549-0.079-0.549-0.268c0-0.134,0.11-0.214,0.439-0.214c0.412,0,0.741-0.055,0.988-0.106
				c0.549-0.108,0.687-0.696,0.796-1.473c0.137-1.125,0.137-3.24,0.137-5.704V23.7c0-4.07,0-4.82-0.055-5.677
				c-0.055-0.91-0.274-1.339-1.181-1.527c-0.219-0.053-0.686-0.079-1.07-0.079c-0.302,0-0.467-0.054-0.467-0.241
				c0-0.187,0.192-0.242,0.577-0.242c1.483,0,3.213,0.081,3.954,0.081c0.659,0,2.389-0.081,3.459-0.081
				c0.385,0,0.577,0.055,0.577,0.242c0,0.187-0.165,0.241-0.494,0.241c-0.22,0-0.467,0.026-0.796,0.079
				c-0.741,0.135-0.961,0.59-1.016,1.527c-0.055,0.856-0.055,1.606-0.055,5.677v0.562c0,0.134,0.082,0.187,0.164,0.187H55.726z"/>
			<path fill="#C6A774" stroke="#3F030B" stroke-width="0.1417" d="M68.464,33.634c-2.69-2.303-3.405-5.303-3.405-7.898
				c0-1.821,0.577-4.981,3.213-7.337c1.977-1.768,4.585-2.838,8.677-2.838c1.703,0,2.718,0.106,3.981,0.268
				c1.043,0.133,1.922,0.374,2.745,0.454c0.303,0.027,0.412,0.161,0.412,0.321c0,0.214-0.083,0.536-0.137,1.473
				c-0.055,0.884-0.027,2.356-0.082,2.893c-0.028,0.401-0.083,0.616-0.33,0.616c-0.22,0-0.275-0.215-0.275-0.59
				c-0.027-0.83-0.384-1.767-1.071-2.464c-0.906-0.937-3.048-1.659-5.574-1.659c-2.388,0-3.954,0.589-5.162,1.659
				c-2.004,1.795-2.526,4.338-2.526,6.936c0,6.373,4.97,9.533,8.649,9.533c2.443,0,3.926-0.269,5.025-1.5
				c0.467-0.509,0.824-1.285,0.934-1.769c0.083-0.428,0.137-0.535,0.356-0.535c0.192,0,0.248,0.188,0.248,0.402
				c0,0.32-0.33,2.649-0.604,3.562c-0.137,0.455-0.248,0.589-0.714,0.776c-1.098,0.428-3.186,0.615-4.943,0.615
				C74.121,36.553,70.963,35.749,68.464,33.634z"/>
			<path fill="#FFFFFF" stroke="#3F030B" stroke-width="0.1417" d="M92.104,23.7c0-4.178,0-4.927-0.055-5.783
				c-0.055-0.911-0.274-1.34-1.181-1.526c-0.22-0.055-0.687-0.081-0.934-0.081c-0.11,0-0.22-0.054-0.22-0.16
				c0-0.161,0.137-0.216,0.439-0.216c1.236,0,2.966,0.081,3.103,0.081c0.302,0,2.389-0.081,3.24-0.081
				c1.729,0,3.569,0.162,5.024,1.18c0.687,0.481,1.895,1.794,1.895,3.641c0,1.982-0.852,3.964-3.323,6.187
				c2.251,2.812,4.119,5.194,5.711,6.854c1.483,1.524,2.664,1.82,3.35,1.927c0.521,0.082,0.906,0.082,1.071,0.082
				c0.137,0,0.247,0.079,0.247,0.159c0,0.161-0.165,0.214-0.659,0.214h-1.95c-1.538,0-2.224-0.134-2.938-0.508
				c-1.181-0.615-2.142-1.929-3.707-3.938c-1.153-1.473-2.444-3.267-2.993-3.963c-0.11-0.106-0.192-0.16-0.356-0.16l-3.377-0.053
				c-0.137,0-0.192,0.08-0.192,0.213v0.644c0,2.571,0,4.687,0.137,5.812c0.083,0.776,0.248,1.365,1.071,1.473
				c0.384,0.054,0.989,0.107,1.236,0.107c0.165,0,0.22,0.079,0.22,0.159c0,0.136-0.137,0.214-0.439,0.214
				c-1.51,0-3.24-0.078-3.377-0.078c-0.027,0-1.757,0.078-2.581,0.078c-0.302,0-0.439-0.053-0.439-0.214
				c0-0.08,0.055-0.159,0.219-0.159c0.248,0,0.577-0.055,0.824-0.107c0.549-0.106,0.687-0.695,0.796-1.473
				c0.137-1.125,0.137-3.24,0.137-5.812L92.104,23.7L92.104,23.7z M94.301,26.029c0,0.134,0.055,0.24,0.192,0.32
				c0.412,0.241,1.675,0.428,2.883,0.428c0.659,0,1.428-0.079,2.06-0.508c0.961-0.644,1.675-2.087,1.675-4.124
				c0-3.348-1.812-5.355-4.75-5.355c-0.824,0-1.565,0.081-1.84,0.161c-0.137,0.054-0.22,0.161-0.22,0.322V26.029L94.301,26.029z"/>
			<path fill="#FFFFFF" stroke="#3F030B" stroke-width="0.1417" d="M112.558,23.7c0-4.178,0-4.927-0.055-5.783
				c-0.055-0.911-0.275-1.34-1.181-1.526c-0.22-0.055-0.687-0.081-0.934-0.081c-0.11,0-0.22-0.054-0.22-0.16
				c0-0.161,0.138-0.216,0.439-0.216c0.632,0,1.373,0,1.977,0.027l1.125,0.054c0.193,0,5.657,0,6.289-0.026
				c0.521-0.027,0.961-0.08,1.18-0.134c0.138-0.026,0.247-0.135,0.384-0.135c0.083,0,0.11,0.108,0.11,0.241
				c0,0.188-0.138,0.51-0.22,1.259c-0.028,0.268-0.083,1.446-0.137,1.768c-0.028,0.134-0.083,0.295-0.193,0.295
				c-0.164,0-0.22-0.135-0.22-0.349c0-0.188-0.027-0.643-0.165-0.964c-0.192-0.428-0.466-0.75-1.949-0.91
				c-0.467-0.054-3.459-0.08-3.762-0.08c-0.11,0-0.165,0.08-0.165,0.268v7.39c0,0.188,0.027,0.268,0.165,0.268
				c0.357,0,3.734,0,4.366-0.053c0.659-0.054,1.043-0.107,1.291-0.375c0.192-0.214,0.302-0.348,0.412-0.348
				c0.082,0,0.137,0.054,0.137,0.213c0,0.161-0.137,0.617-0.22,1.5c-0.054,0.535-0.11,1.526-0.11,1.714c0,0.215,0,0.51-0.192,0.51
				c-0.137,0-0.192-0.107-0.192-0.241c0-0.269,0-0.535-0.11-0.884c-0.11-0.375-0.357-0.83-1.428-0.938
				c-0.741-0.08-3.459-0.133-3.926-0.133c-0.137,0-0.192,0.08-0.192,0.187v2.356c0,0.91-0.028,4.017,0,4.579
				c0.083,1.848,0.494,2.195,3.185,2.195c0.714,0,1.921,0,2.636-0.295c0.714-0.295,1.043-0.83,1.235-1.928
				c0.055-0.296,0.11-0.4,0.247-0.4c0.165,0,0.165,0.213,0.165,0.4c0,0.215-0.22,2.035-0.357,2.598
				c-0.192,0.695-0.412,0.695-1.483,0.695c-2.059,0-3.569-0.054-4.64-0.081c-1.071-0.053-1.73-0.079-2.142-0.079
				c-0.055,0-0.521,0-1.098,0.026c-0.55,0-1.181,0.053-1.593,0.053c-0.302,0-0.439-0.053-0.439-0.214c0-0.08,0.055-0.16,0.219-0.16
				c0.248,0,0.577-0.054,0.824-0.107c0.549-0.105,0.687-0.694,0.796-1.473c0.137-1.123,0.137-3.238,0.137-5.811V23.7H112.558z"/>
			<path fill="#FFFFFF" stroke="#3F030B" stroke-width="0.1417" d="M126.45,35.829c-0.385-0.188-0.412-0.294-0.412-1.019
				c0-1.338,0.11-2.408,0.138-2.838c0.027-0.295,0.083-0.429,0.22-0.429c0.165,0,0.192,0.08,0.192,0.295c0,0.241,0,0.616,0.083,0.99
				c0.412,1.981,2.224,2.731,4.063,2.731c2.636,0,3.927-1.849,3.927-3.562c0-1.849-0.796-2.92-3.158-4.821l-1.236-0.99
				c-2.91-2.329-3.569-3.988-3.569-5.81c0-2.866,2.197-4.819,5.684-4.819c1.071,0,1.868,0.106,2.554,0.268
				c0.521,0.105,0.742,0.133,0.961,0.133c0.219,0,0.274,0.054,0.274,0.188c0,0.133-0.109,1.017-0.109,2.838
				c0,0.428-0.055,0.615-0.192,0.615c-0.165,0-0.192-0.133-0.22-0.348c-0.027-0.321-0.192-1.045-0.357-1.338
				c-0.165-0.295-0.906-1.421-3.432-1.421c-1.895,0-3.377,1.151-3.377,3.106c0,1.526,0.714,2.491,3.35,4.5l0.769,0.588
				c3.24,2.489,4.009,4.15,4.009,6.292c0,1.099-0.439,3.134-2.334,4.444c-1.181,0.804-2.663,1.125-4.146,1.125
				C128.839,36.553,127.576,36.364,126.45,35.829z"/>
			<path fill="#FFFFFF" stroke="#3F030B" stroke-width="0.1417" d="M149.157,28.412c0,2.57,0,4.688,0.137,5.811
				c0.083,0.777,0.247,1.366,1.071,1.473c0.384,0.055,0.989,0.107,1.235,0.107c0.165,0,0.22,0.08,0.22,0.16
				c0,0.135-0.138,0.214-0.44,0.214c-1.51,0-3.24-0.079-3.377-0.079c-0.137,0-1.867,0.079-2.69,0.079
				c-0.302,0-0.439-0.053-0.439-0.214c0-0.08,0.055-0.16,0.22-0.16c0.247,0,0.576-0.054,0.824-0.107
				c0.549-0.105,0.686-0.694,0.796-1.473c0.137-1.123,0.137-3.238,0.137-5.811V17.086l-4.063,0.054
				c-1.703,0.026-2.361,0.213-2.801,0.856c-0.302,0.455-0.385,0.643-0.467,0.83c-0.083,0.214-0.165,0.268-0.274,0.268
				c-0.083,0-0.137-0.08-0.137-0.24c0-0.268,0.549-2.571,0.604-2.785c0.055-0.16,0.165-0.508,0.275-0.508
				c0.192,0,0.467,0.268,1.208,0.32c0.796,0.08,1.84,0.134,2.169,0.134h10.297c0.878,0,1.51-0.054,1.95-0.134
				c0.412-0.053,0.659-0.134,0.769-0.134c0.137,0,0.137,0.161,0.137,0.321c0,0.804-0.082,2.65-0.082,2.945
				c0,0.241-0.083,0.348-0.192,0.348c-0.138,0-0.193-0.079-0.22-0.454l-0.028-0.295c-0.083-0.803-0.742-1.419-3.377-1.473
				l-3.46-0.054v11.327H149.157z"/>
			<path fill="#FFFFFF" stroke="#3F030B" stroke-width="0.1417" d="M168.349,15.561c6.178,0,10.791,3.801,10.791,10.041
				c0,5.998-4.337,10.951-10.956,10.951c-7.523,0-10.654-5.703-10.654-10.523C157.53,21.691,160.77,15.561,168.349,15.561z
				 M168.925,35.535c2.471,0,7.579-1.393,7.579-9.186c0-6.427-4.009-9.879-8.347-9.879c-4.585,0-8.018,2.944-8.018,8.81
				C160.138,31.52,163.983,35.535,168.925,35.535z"/>
			<path fill="#FFFFFF" stroke="#3F030B" stroke-width="0.1417" d="M219.222,35.803c-0.275,0-0.688-0.027-1.099-0.16
				c-0.577-0.162-1.373-0.59-2.36-2.974c-1.676-4.069-5.986-15.127-6.398-16.146c-0.329-0.83-0.439-0.963-0.604-0.963
				s-0.275,0.159-0.604,1.043l-6.233,16.627c-0.403,1.094-0.85,1.963-1.684,2.336c-0.685-0.209-1.599-0.664-2.677-1.771
				c-1.594-1.66-3.459-4.044-5.711-6.855c2.471-2.222,3.321-4.203,3.321-6.186c0-1.847-1.208-3.159-1.896-3.641
				c-1.454-1.018-3.293-1.18-5.023-1.18c-0.852,0-2.938,0.081-3.238,0.081c-0.139,0-1.867-0.081-3.104-0.081
				c-0.303,0-0.439,0.055-0.439,0.216c0,0.106,0.11,0.16,0.221,0.16c0.246,0,0.714,0.026,0.933,0.081
				c0.906,0.187,1.126,0.615,1.181,1.526c0.055,0.856,0.055,1.605,0.055,5.783v4.712c0,2.571,0,4.687-0.137,5.812
				c-0.109,0.776-0.248,1.365-0.797,1.473c-0.248,0.054-0.576,0.106-0.824,0.106c-0.164,0-0.219,0.08-0.219,0.16
				c0,0.161,0.137,0.214,0.438,0.214c0.823,0,2.554-0.078,2.581-0.078c0.137,0,1.867,0.078,3.377,0.078
				c0.302,0,0.439-0.078,0.439-0.214c0-0.08-0.056-0.16-0.221-0.16c-0.247,0-0.852-0.054-1.236-0.106
				c-0.822-0.106-0.988-0.695-1.07-1.473c-0.137-1.125-0.137-3.24-0.137-5.812V27.77c0-0.134,0.055-0.213,0.192-0.213l3.377,0.053
				c0.165,0,0.248,0.054,0.356,0.16c0.55,0.696,1.84,2.49,2.992,3.963c1.565,2.009,2.526,3.32,3.707,3.938
				c0.577,0.303,1.145,0.445,2.149,0.491c0.071,0.011,0.157,0.017,0.261,0.017c0.11,0,0.223-0.001,0.334-0.002
				c0.066,0.001,0.125,0.002,0.194,0.002h1.95c0.307,0,0.476-0.023,0.568-0.078c0.018,0,0.045,0,0.057,0
				c0.303,0,1.484,0.078,2.143,0.078c0.247,0,0.412-0.053,0.412-0.214c0-0.106-0.083-0.159-0.273-0.159h-0.274
				c-0.468,0-1.043-0.242-1.043-0.777c0-0.481,0.137-1.125,0.384-1.795l1.648-4.738c0.054-0.135,0.137-0.215,0.274-0.215h5.903
				c0.137,0,0.191,0.054,0.246,0.162l2.554,6.586c0.164,0.429,0,0.67-0.165,0.724c-0.109,0.026-0.191,0.08-0.191,0.188
				c0,0.16,0.302,0.16,0.822,0.188c1.896,0.053,3.899,0.053,4.311,0.053c0.304,0,0.551-0.053,0.551-0.214
				C219.496,35.829,219.386,35.803,219.222,35.803z M191.192,26.271c-0.631,0.428-1.4,0.508-2.06,0.508
				c-1.208,0-2.471-0.188-2.883-0.428c-0.137-0.08-0.192-0.188-0.192-0.322v-8.754c0-0.161,0.082-0.269,0.221-0.322
				c0.273-0.08,1.016-0.161,1.84-0.161c2.938,0,4.75,2.008,4.75,5.355C192.867,24.183,192.153,25.627,191.192,26.271z
				 M211.011,27.314h-5.244c-0.082,0-0.137-0.055-0.082-0.188l2.416-7.229c0.139-0.401,0.275-0.401,0.412,0l2.609,7.229
				C211.147,27.234,211.147,27.314,211.011,27.314z"/>
			<path fill="#FFFFFF" stroke="#3F030B" stroke-width="0.1417" d="M227.005,28.412c0,2.57,0,4.688,0.137,5.811
				c0.084,0.777,0.248,1.366,1.071,1.473c0.384,0.055,0.988,0.107,1.235,0.107c0.164,0,0.22,0.08,0.22,0.16
				c0,0.135-0.138,0.214-0.44,0.214c-1.51,0-3.238-0.079-3.377-0.079c-0.137,0-1.867,0.079-2.69,0.079
				c-0.302,0-0.438-0.053-0.438-0.214c0-0.08,0.055-0.16,0.219-0.16c0.248,0,0.578-0.054,0.824-0.107
				c0.549-0.105,0.688-0.694,0.797-1.473c0.137-1.123,0.137-3.238,0.137-5.811V17.086l-4.064,0.054
				c-1.701,0.026-2.361,0.213-2.801,0.856c-0.302,0.455-0.384,0.643-0.466,0.83c-0.083,0.214-0.165,0.268-0.274,0.268
				c-0.082,0-0.138-0.08-0.138-0.24c0-0.268,0.549-2.571,0.604-2.785c0.055-0.16,0.164-0.508,0.273-0.508
				c0.193,0,0.469,0.268,1.208,0.32c0.797,0.08,1.84,0.134,2.169,0.134h10.296c0.878,0,1.511-0.054,1.95-0.134
				c0.412-0.053,0.659-0.134,0.768-0.134c0.139,0,0.139,0.161,0.139,0.321c0,0.804-0.083,2.65-0.083,2.945
				c0,0.241-0.083,0.348-0.192,0.348c-0.137,0-0.191-0.079-0.219-0.454l-0.028-0.295c-0.081-0.803-0.741-1.419-3.377-1.473
				l-3.459-0.054L227.005,28.412L227.005,28.412z"/>
			<path fill="#FFFFFF" stroke="#3F030B" stroke-width="0.1417" d="M241.337,28.412c0,2.57,0,4.688,0.139,5.811
				c0.082,0.777,0.246,1.366,1.07,1.473c0.385,0.055,0.989,0.107,1.235,0.107c0.165,0,0.22,0.08,0.22,0.16
				c0,0.135-0.137,0.214-0.439,0.214c-1.51,0-3.239-0.079-3.377-0.079s-1.867,0.079-2.69,0.079c-0.304,0-0.44-0.053-0.44-0.214
				c0-0.08,0.055-0.16,0.221-0.16c0.246,0,0.576-0.054,0.824-0.107c0.549-0.105,0.686-0.694,0.795-1.473
				c0.138-1.123,0.138-3.238,0.138-5.811V23.7c0-4.178,0-4.927-0.056-5.783c-0.055-0.911-0.33-1.366-0.934-1.5
				c-0.302-0.081-0.659-0.107-0.852-0.107c-0.108,0-0.219-0.054-0.219-0.16c0-0.161,0.137-0.216,0.439-0.216
				c0.906,0,2.635,0.081,2.773,0.081c0.137,0,1.865-0.081,2.689-0.081c0.301,0,0.439,0.055,0.439,0.216
				c0,0.106-0.11,0.16-0.219,0.16c-0.193,0-0.359,0.026-0.688,0.081c-0.741,0.133-0.961,0.589-1.016,1.526
				c-0.056,0.856-0.056,1.605-0.056,5.783L241.337,28.412L241.337,28.412z"/>
			<path fill="#FFFFFF" stroke="#3F030B" stroke-width="0.1417" d="M257.812,15.561c6.178,0,10.791,3.801,10.791,10.041
				c0,5.998-4.338,10.951-10.957,10.951c-7.521,0-10.652-5.703-10.652-10.523C246.992,21.691,250.233,15.561,257.812,15.561z
				 M258.388,35.535c2.471,0,7.577-1.393,7.577-9.186c0-6.427-4.008-9.879-8.347-9.879c-4.585,0-8.018,2.944-8.018,8.81
				C249.601,31.52,253.444,35.535,258.388,35.535z"/>
			<path fill="#FFFFFF" stroke="#3F030B" stroke-width="0.1417" d="M274.065,32.536c0.054,2.194,0.328,2.892,1.07,3.104
				c0.521,0.135,1.125,0.161,1.373,0.161c0.137,0,0.219,0.054,0.219,0.16c0,0.161-0.164,0.214-0.494,0.214
				c-1.564,0-2.662-0.078-2.909-0.078c-0.248,0-1.4,0.078-2.636,0.078c-0.274,0-0.439-0.025-0.439-0.214
				c0-0.106,0.083-0.16,0.221-0.16c0.219,0,0.713-0.026,1.125-0.161c0.687-0.188,0.824-0.964,0.824-3.399l0.027-15.343
				c0-1.044,0.082-1.338,0.302-1.338s0.687,0.589,0.96,0.856c0.412,0.455,4.503,4.766,8.73,9.185
				c2.719,2.838,5.711,6.104,6.591,6.987l-0.302-13.602c-0.027-1.74-0.221-2.33-1.071-2.544c-0.494-0.107-1.125-0.134-1.345-0.134
				c-0.192,0-0.221-0.08-0.221-0.188c0-0.161,0.221-0.188,0.551-0.188c1.234,0,2.553,0.081,2.855,0.081
				c0.301,0,1.208-0.081,2.333-0.081c0.302,0,0.495,0.027,0.495,0.188c0,0.107-0.11,0.188-0.303,0.188c-0.138,0-0.33,0-0.66,0.081
				c-0.905,0.187-1.016,0.775-1.016,2.383l-0.055,15.689c0,1.77-0.055,1.9-0.248,1.9c-0.219,0-0.548-0.293-2.004-1.713
				c-0.303-0.269-4.257-4.203-7.167-7.256c-3.185-3.348-6.288-6.722-7.167-7.686L274.065,32.536z"/>
			<path fill="#FFFFFF" stroke="#3F030B" stroke-width="0.1417" d="M296.524,35.829c-0.386-0.188-0.413-0.294-0.413-1.019
				c0-1.338,0.109-2.408,0.138-2.838c0.027-0.295,0.082-0.429,0.22-0.429c0.165,0,0.192,0.08,0.192,0.295
				c0,0.241,0,0.616,0.083,0.99c0.411,1.981,2.224,2.731,4.062,2.731c2.638,0,3.929-1.849,3.929-3.562
				c0-1.849-0.797-2.92-3.159-4.821l-1.234-0.99c-2.912-2.329-3.568-3.988-3.568-5.81c0-2.866,2.195-4.819,5.683-4.819
				c1.071,0,1.867,0.106,2.554,0.268c0.522,0.105,0.741,0.133,0.961,0.133c0.221,0,0.275,0.054,0.275,0.188
				c0,0.133-0.11,1.017-0.11,2.838c0,0.428-0.055,0.615-0.191,0.615c-0.165,0-0.192-0.133-0.22-0.348
				c-0.027-0.321-0.191-1.045-0.356-1.338c-0.165-0.295-0.906-1.421-3.432-1.421c-1.896,0-3.379,1.151-3.379,3.106
				c0,1.526,0.716,2.491,3.351,4.5l0.769,0.588c3.24,2.489,4.01,4.15,4.01,6.292c0,1.099-0.438,3.134-2.334,4.444
				c-1.182,0.804-2.663,1.125-4.146,1.125C298.912,36.553,297.649,36.364,296.524,35.829z"/>
		</g>
		<path fill="#FFFFFF" stroke="#3F030B" stroke-width="0.2835" d="M35.348,27.07c0,0-1.159-2.15-4.156-2.252
			c-0.31-0.662-1.056-1.799-2.556-1.904c-2.124-0.148-4.454,0.445-5.824,1.113s-5.892,3.191-7.263,2.227
			c-1.37-0.965-1.025-1.326-0.822-1.41c0.359-0.148,0.685-1.058-0.086-1.577c-0.315-0.213-0.673-0.261-0.965-0.165
			c-0.238,0.077-0.433,0.229-0.525,0.629c-0.206,0.891,0.206,1.336,0.206,1.336s0.739,1.482,2.573,2.044
			c0.258,0.592,1.054,1.994,2.867,2.111c2.301,0.148,4.824-0.445,6.309-1.113s6.383-3.19,7.867-2.227
			c1.484,0.965,1.11,1.327,0.891,1.41c-0.39,0.148-0.742,1.059,0.093,1.577c0.342,0.213,0.729,0.261,1.046,0.165
			c0.258-0.077,0.468-0.229,0.568-0.629C35.793,27.516,35.348,27.07,35.348,27.07z M17.684,27.961
			c-0.465-0.236-0.754-0.477-0.941-0.68c1.02,0.127,2.298-0.028,3.878-0.73c5.344-2.375,7.704-3.112,9.044-2.375
			c0.412,0.227,0.676,0.458,0.85,0.656c-0.873,0.057-1.878,0.28-3.033,0.754C21.691,27.961,19.135,28.698,17.684,27.961z"/>
		<path fill="#FFFFFF" stroke="#3F030B" stroke-width="0.2835" d="M313.644,28.406c0.101,0.4,0.312,0.552,0.568,0.629
			c0.316,0.096,0.704,0.048,1.046-0.165c0.835-0.521,0.482-1.429,0.093-1.577c-0.219-0.083-0.594-0.445,0.892-1.41
			c1.484-0.965,6.383,1.559,7.867,2.227c1.483,0.668,4.008,1.263,6.309,1.113c1.812-0.117,2.609-1.521,2.867-2.111
			c1.834-0.562,2.573-2.044,2.573-2.044s0.41-0.445,0.205-1.336c-0.094-0.4-0.287-0.552-0.525-0.629
			c-0.291-0.096-0.649-0.048-0.965,0.165c-0.771,0.52-0.445,1.429-0.086,1.577c0.203,0.084,0.549,0.445-0.822,1.41
			c-1.37,0.965-5.893-1.559-7.263-2.227s-3.699-1.262-5.824-1.113c-1.499,0.105-2.245,1.242-2.556,1.904
			c-2.995,0.102-4.155,2.252-4.155,2.252S313.421,27.516,313.644,28.406z M321.733,25.586c-1.155-0.474-2.16-0.697-3.033-0.754
			c0.174-0.198,0.438-0.43,0.85-0.656c1.34-0.737,3.7,0,9.044,2.375c1.58,0.702,2.858,0.857,3.878,0.73
			c-0.187,0.203-0.477,0.443-0.94,0.68C330.08,28.698,327.522,27.961,321.733,25.586z"/>
	</g>
</g>
</svg>
